<svg xmlns="http://www.w3.org/2000/svg" width="420" height="300" viewBox="0 0 420 300" role="img" aria-label="Strawberries grocery product image"><defs><linearGradient id="bg-strawberries" x1="0" y1="0" x2="1" y2="1"><stop stop-color="#f3f9e8"/><stop offset="1" stop-color="#d4eaa0"/></linearGradient><filter id="shadow-strawberries" x="-20%" y="-20%" width="140%" height="140%"><feDropShadow dx="0" dy="10" stdDeviation="10" flood-color="#1f2933" flood-opacity="0.16"/></filter></defs><rect width="420" height="300" rx="24" fill="url(#bg-strawberries)"/><circle cx="354" cy="50" r="76" fill="#ffffff" opacity="0.34"/><circle cx="70" cy="270" r="96" fill="#ffffff" opacity="0.24"/><g filter="url(#shadow-strawberries)"><path d="M210 118 c60 30 82 80 56 136-16 34-42 58-56 72-14-14-40-38-56-72-26-56-4-106 56-136Z" fill="#d9343f"/><path d="M170 126 l40 24 40-24-14 44h-72Z" fill="#5f9f4e"/><circle cx="192" cy="202" r="4" fill="#ffd7a2"/><circle cx="226" cy="226" r="4" fill="#ffd7a2"/><circle cx="210" cy="262" r="4" fill="#ffd7a2"/></g></svg>